<?xml version="1.0" standalone="no"?>
<!DOCTYPE svg PUBLIC "-//W3C//DTD SVG 20010904//EN"
 "http://www.w3.org/TR/2001/REC-SVG-20010904/DTD/svg10.dtd">
<svg version="1.0" xmlns="http://www.w3.org/2000/svg"
 width="684.000000pt" height="684.000000pt" viewBox="0 0 684.000000 684.000000"
 preserveAspectRatio="xMidYMid meet">
<metadata>
Created by potrace 1.11, written by Peter Selinger 2001-2013
</metadata>
<g transform="translate(0.000000,684.000000) scale(0.100000,-0.100000)"
fill="#000000" stroke="none">
<path d="M3369 6806 c-2 -2 -40 -6 -84 -9 -44 -3 -118 -10 -165 -16 -47 -6
-143 -13 -215 -15 -71 -3 -157 -10 -190 -16 -33 -6 -76 -13 -95 -14 -59 -6
-98 -15 -147 -35 -51 -20 -53 -22 -57 -112 -1 -26 -8 -55 -16 -64 -8 -10 -16
-30 -17 -44 -2 -14 -5 -44 -7 -66 -2 -22 -4 -40 -5 -40 -3 0 -13 -109 -13
-144 0 -18 4 -36 10 -40 6 -4 -4 -23 -25 -46 -90 -100 -108 -172 -62 -239 13
-19 31 -37 40 -39 35 -9 1 -107 -37 -107 -8 0 -21 -11 -30 -25 -9 -14 -27 -28
-40 -31 -13 -3 -24 -12 -24 -19 0 -7 -17 -31 -38 -53 -21 -22 -47 -53 -57 -68
-10 -16 -29 -37 -42 -47 -34 -27 -53 -69 -42 -90 8 -14 6 -17 -16 -17 -19 0
-25 -5 -25 -22 0 -13 -7 -32 -15 -42 -8 -11 -15 -27 -15 -35 0 -29 -45 -111
-64 -117 -17 -6 -18 -7 -3 -16 18 -10 23 -34 8 -40 -5 -1 -11 -22 -14 -46 -2
-23 -12 -51 -22 -62 -10 -11 -19 -30 -20 -43 -2 -13 -12 -41 -23 -63 -21 -41
-27 -68 -37 -149 -3 -27 -10 -66 -15 -85 -11 -43 -24 -182 -22 -230 1 -23 -5
-40 -16 -48 -16 -12 -16 -14 2 -24 17 -10 16 -11 -9 -28 -18 -12 -23 -19 -13
-22 10 -4 11 -8 0 -20 -10 -13 -9 -18 4 -28 14 -12 14 -14 0 -22 -9 -5 -16
-20 -16 -33 0 -13 -5 -27 -10 -30 -5 -3 -10 -24 -10 -45 0 -21 -4 -41 -9 -44
-7 -5 -22 -56 -20 -72 0 -4 -5 -11 -13 -15 -10 -7 -9 -9 5 -9 23 0 22 -12 -4
-28 -14 -9 -19 -20 -16 -33 4 -14 -4 -28 -24 -46 -16 -15 -29 -32 -29 -39 0
-7 -8 -15 -19 -19 -10 -3 -31 -16 -46 -29 -38 -33 -28 -58 22 -55 21 1 43 1
50 0 17 -2 -73 -171 -92 -171 -20 0 -92 -55 -88 -68 3 -6 9 -9 15 -6 6 4 14 0
19 -7 6 -10 9 -11 9 -1 0 15 27 16 32 1 4 -12 60 -14 129 -4 43 6 79 24 108
52 21 21 23 10 6 -38 -23 -63 -10 -157 41 -318 75 -232 169 -341 332 -382 64
-16 73 -26 101 -108 16 -46 19 -67 11 -76 -8 -10 -6 -15 10 -20 14 -4 19 -12
16 -22 -4 -9 6 -29 21 -48 16 -18 36 -45 46 -60 21 -30 27 -27 42 18 13 40 45
44 76 11 18 -20 20 -24 6 -24 -24 0 -31 -19 -13 -39 9 -10 16 -22 16 -28 0 -5
11 -20 25 -33 14 -13 25 -31 25 -40 0 -8 9 -23 20 -33 12 -10 20 -29 20 -47 0
-16 5 -30 10 -30 6 0 10 -13 10 -28 0 -16 9 -37 20 -47 11 -10 20 -28 20 -40
0 -11 4 -25 8 -30 4 -6 19 -42 32 -81 14 -43 28 -70 35 -68 6 3 23 -6 38 -20
14 -13 32 -26 39 -28 8 -3 1 -12 -17 -24 -17 -10 -34 -24 -38 -31 -4 -7 -15
-13 -23 -13 -8 0 -13 -4 -10 -9 3 -4 -7 -20 -23 -33 -15 -14 -38 -45 -49 -69
-13 -26 -45 -63 -77 -89 -38 -31 -54 -50 -51 -63 7 -27 -13 -87 -29 -87 -8 0
-15 5 -15 10 0 20 -19 9 -65 -35 l-47 -44 20 -26 c12 -14 18 -34 15 -45 -3
-11 0 -20 6 -20 24 0 9 -21 -26 -37 -22 -10 -39 -27 -41 -38 -2 -11 -19 -40
-38 -64 -38 -50 -43 -87 -19 -145 8 -20 15 -38 15 -41 -1 -34 3 -46 18 -65 15
-19 22 -21 39 -12 17 10 22 7 32 -14 6 -14 11 -36 11 -50 0 -14 9 -42 20 -64
11 -22 20 -44 20 -50 0 -6 9 -21 21 -33 11 -12 23 -34 26 -49 3 -16 9 -28 14
-28 5 0 9 -7 9 -16 0 -9 14 -33 30 -54 17 -21 30 -42 30 -47 0 -9 21 -35 69
-88 10 -11 29 -42 41 -70 13 -27 30 -55 38 -60 20 -16 18 -177 -4 -218 -9 -18
-20 -44 -24 -60 l-9 -27 850 0 c467 1 856 3 864 6 26 10 20 111 -10 166 -30
56 -34 146 -9 193 47 87 66 130 80 174 8 27 30 75 49 107 19 32 35 62 35 67 0
5 18 50 41 100 40 89 42 106 24 163 -6 19 -2 22 44 28 28 4 58 9 66 12 19 8
19 41 0 74 -22 38 -19 46 30 77 25 15 45 34 45 42 0 18 -53 102 -80 126 -19
17 -18 18 3 62 l22 45 -53 47 c-44 39 -54 53 -57 86 -2 29 -11 46 -32 62 -15
13 -28 28 -28 35 -1 42 -106 129 -181 149 -44 13 -84 53 -84 85 0 27 67 104
91 104 17 0 49 30 49 47 0 6 6 13 13 16 7 3 19 24 27 48 22 69 69 159 111 216
22 29 39 55 39 59 0 10 69 93 107 130 18 17 33 36 33 43 0 6 7 11 16 11 8 0
13 3 10 8 -2 4 2 21 9 38 9 22 23 33 53 42 48 15 78 49 92 106 20 78 31 96 56
96 18 0 28 9 39 37 9 21 14 46 11 55 -5 21 14 24 32 6 9 -9 12 -7 12 10 0 20
98 128 107 118 2 -2 12 -25 22 -52 10 -27 23 -50 29 -52 6 -2 27 12 47 30 35
32 36 34 26 77 -5 24 -7 50 -4 59 4 10 2 13 -5 8 -7 -4 -12 -3 -12 3 0 19 19
21 54 5 32 -16 36 -16 60 0 28 18 34 36 14 37 -7 0 -2 5 12 10 21 9 23 12 10
22 -17 14 -21 78 -6 89 6 4 16 2 24 -4 17 -14 33 7 29 37 -2 17 3 20 31 19 21
-1 32 3 32 12 0 8 7 14 15 14 8 0 15 7 15 15 0 8 -9 15 -20 15 -17 0 -18 3 -8
19 10 16 6 32 -20 94 -17 41 -36 105 -42 142 -6 37 -15 76 -20 85 -5 10 -7 38
-5 63 3 25 0 58 -5 73 -10 25 -12 26 -29 10 -22 -20 -37 -20 -45 -1 -3 8 -1
15 4 15 13 0 7 37 -7 51 -6 6 -9 17 -7 24 3 7 -4 15 -15 18 -22 6 -29 27 -9
27 7 0 2 7 -10 16 -27 19 -31 66 -4 58 15 -5 15 -4 -1 9 -14 11 -16 20 -9 34
13 26 15 324 3 370 -6 21 -13 86 -16 143 -7 134 -12 186 -26 250 -6 28 -8 57
-5 65 3 8 1 15 -4 15 -6 0 -10 5 -10 10 0 6 7 10 15 10 14 0 14 3 2 28 -8 15
-17 39 -21 54 -3 14 -40 89 -81 166 -41 77 -75 145 -75 151 0 6 -7 11 -15 11
-8 0 -15 7 -15 15 0 9 -11 20 -24 26 -13 6 -30 23 -37 38 -8 14 -20 32 -27 39
-7 8 -10 17 -7 21 2 5 -6 14 -19 21 -13 6 -34 31 -46 54 -29 53 -152 172 -218
212 -18 10 -32 24 -32 32 0 7 -4 10 -10 7 -5 -3 -23 1 -39 10 l-30 15 -1 281
c0 155 -3 285 -6 290 -3 5 2 23 10 40 15 29 14 31 -4 36 -12 3 -26 23 -37 52
-19 50 -26 58 -63 67 -14 4 -36 14 -50 22 -14 10 -48 17 -80 18 -49 1 -159 7
-320 19 -30 2 -100 7 -155 10 -55 4 -102 8 -105 10 -3 2 -72 6 -155 10 -82 3
-152 8 -156 10 -3 3 -8 3 -10 1z m-797 -4456 c1 -9 -1 -17 -7 -18 -5 -1 -11
10 -13 25 -4 29 13 23 20 -7z m1794 -59 c-15 -22 -30 -41 -36 -41 -11 0 -71
-89 -96 -142 -16 -34 -44 -52 -44 -29 0 13 -27 21 -45 15 -8 -4 -15 -12 -15
-20 0 -18 -20 -17 -44 1 -11 8 -30 15 -42 15 -34 0 -39 18 -10 32 27 12 37 32
11 22 -28 -11 -15 12 15 27 16 8 76 43 132 79 57 35 111 66 121 67 11 2 28 10
40 18 34 24 41 1 13 -44z m-1716 -6 c22 -14 40 -31 40 -38 1 -17 31 -52 54
-60 17 -7 17 -9 3 -30 -8 -12 -21 -23 -28 -25 -16 -3 -47 44 -58 86 l-7 26
-27 -39 c-17 -25 -28 -34 -31 -24 -2 8 -9 29 -15 48 -27 84 -4 102 69 56z m40
-195 c8 -16 7 -26 -7 -45 -10 -13 -22 -23 -28 -21 -9 2 -10 13 -6 69 1 23 28
22 41 -3z m73 -22 c-5 -7 -24 -31 -42 -54 -18 -23 -31 -45 -30 -50 4 -20 -2
-24 -21 -14 l-21 11 22 37 c31 51 61 81 83 81 13 1 16 -3 9 -11z"/>
<path d="M4121 2154 c0 -11 3 -14 6 -6 3 7 2 16 -1 19 -3 4 -6 -2 -5 -13z"/>
<path d="M1370 3800 c-13 -8 -12 -10 3 -10 9 0 17 5 17 10 0 12 -1 12 -20 0z"/>
<path d="M1421 3729 c-59 -11 -77 -29 -30 -29 36 0 89 19 89 33 0 8 1 8 -59
-4z m12 -16 c-7 -2 -19 -2 -25 0 -7 3 -2 5 12 5 14 0 19 -2 13 -5z"/>
<path d="M4905 2837 c-11 -7 -21 -23 -23 -37 -2 -23 -1 -22 23 10 33 45 33 47
0 27z"/>
</g>
</svg>
